<svg viewBox="0 0 100 100" xmlns="http://www.w3.org/2000/svg">
  <g fill="#000000" fill-rule="evenodd">
    <path d="M70.743 30.07a6.944 6.944 0 0 0-.415 2.335c0 2.785 1.716 5.4 4.477 6.413l25.136 9.188a49.583 49.583 0 0 0-3.156-15.681L79.49 26.012c-3.53-1.293-7.455.531-8.746 4.068M29.652 32.405c0-.772-.138-1.563-.414-2.335-1.292-3.537-5.217-5.36-8.747-4.068L3.195 32.315A49.973 49.973 0 0 0 .049 48.006l25.136-9.188a6.832 6.832 0 0 0 4.477-6.413M34.02 43.737a2.173 2.173 0 0 0 .858 2.956c5.03 2.766 10.108 4.139 15.206 4.139 5.098 0 10.206-1.383 15.294-4.139a2.183 2.183 0 0 0 .878-2.956 2.173 2.173 0 0 0-2.949-.881c-3.45 1.863-6.843 3.006-10.225 3.427a6.051 6.051 0 0 0-3.116-11.242 6.058 6.058 0 0 0-6.055 6.051c0 2.185 1.163 4.088 2.89 5.16-3.275-.45-6.539-1.583-9.832-3.396a2.18 2.18 0 0 0-2.959.861M83.503 66.303H17.819c-8.451 0-15.6-5.672-17.819-13.417v34.358C0 94.29 5.71 100 12.75 100h75.782c6.3 0 11.409-5.11 11.409-11.413V54.058c-2.12 7.074-8.688 12.245-16.438 12.245M79.46 17.936c4.29 0 8.283 1.332 11.586 3.597C82.023 8.517 66.996 0 49.976 0S17.926 8.517 8.903 21.513a20.42 20.42 0 0 1 11.577-3.577H79.47h-.01Z"/>
  </g>
</svg>
